<?xml version="1.0" encoding="UTF-8"?><svg id="a" xmlns="http://www.w3.org/2000/svg" viewBox="0 0 765.35 170.08"><g><path d="M56,94.77c-13.15,0-24.35-6.97-24.35-22.5v-20.12c0-15.53,11.29-22.59,24.17-22.59,6.79,0,13.59,2.21,18.88,5.91,.62,.44,.71,1.06,.26,1.76l-4.15,6c-.44,.79-1.06,.79-1.85,.35-3.97-2.74-8.73-3.97-13.15-3.97-8.56,0-13.5,4.76-13.5,12.62v19.76c0,8.03,5.03,12.71,13.59,12.71,5.03,0,10.5-1.59,14.65-4.59,.71-.53,1.32-.44,1.76,.35l4.15,6c.44,.71,.44,1.32-.18,1.85-5.56,4.32-12.97,6.44-20.29,6.44Z" style="fill:#152f4e;"/><path d="M121.29,93.71c-.62,0-1.15-.26-1.5-.88l-15.44-22.15h-7.85v21.7c0,.88-.44,1.32-1.24,1.32h-8.12c-.79,0-1.24-.44-1.24-1.32V31.95c0-.88,.44-1.32,1.24-1.32h20.47c14.47,0,22.94,7.5,22.94,20.12,0,9.7-5.38,16.32-14.65,18.79l16.15,22.59c.62,.97,.18,1.59-.79,1.59h-9.97Zm-24.79-53.29v20.73h11.12c8.21,0,12.09-3.26,12.09-10.32s-3.88-10.41-12.09-10.41h-11.12Z" style="fill:#152f4e;"/><path d="M152.79,84h28.32c.88,0,1.32,.44,1.32,1.24v7.15c0,.88-.44,1.32-1.32,1.32h-37.76c-.79,0-1.24-.44-1.24-1.32V31.95c0-.88,.44-1.32,1.24-1.32h36.53c.88,0,1.32,.44,1.32,1.32v7.15c0,.79-.44,1.24-1.32,1.24h-27.09v16.5h24.79c.88,0,1.32,.44,1.32,1.32v7.06c0,.88-.44,1.32-1.32,1.32h-24.79v17.47Z" style="fill:#152f4e;"/><path d="M235.11,30.62c.79,0,1.32,.44,1.32,1.32v7.23c0,.79-.53,1.24-1.32,1.24h-17.73v51.97c0,.88-.44,1.32-1.24,1.32h-8.12c-.79,0-1.24-.44-1.24-1.32V40.42h-17.82c-.79,0-1.32-.44-1.32-1.24v-7.23c0-.88,.53-1.32,1.32-1.32h46.14Z" style="fill:#152f4e;"/><path d="M263.96,94.77c-8.82,0-15.35-2.82-22.5-8.47-.62-.62-.71-1.15-.26-1.85l4.41-6.18c.44-.62,1.06-.71,1.76-.26,5.74,4.15,11.03,6.53,17.03,6.71,6.44,0,12.79-2.74,12.79-8.73,0-6.35-6.62-7.94-14.29-9.53-9.26-1.94-21.44-6.18-21.44-19.32,0-12.26,10.85-17.56,23.56-17.56,7.59,0,13.59,2.12,20.73,6.97,.71,.44,.79,1.15,.35,1.76l-4.23,6.09c-.44,.71-1.15,.71-1.85,.26-5.21-3.35-10.41-4.94-15.79-5.12-7.59,0-12,3-12,7.76,0,5.65,5.65,7.15,13.41,8.91,10.32,2.29,22.5,5.65,22.5,19.59s-11.29,18.97-24.17,18.97Z" style="fill:#152f4e;"/><path d="M321.13,94.77c-13.15,0-24.35-6.97-24.35-22.5v-20.12c0-15.53,11.29-22.59,24.17-22.59,6.79,0,13.59,2.21,18.88,5.91,.62,.44,.71,1.06,.26,1.76l-4.15,6c-.44,.79-1.06,.79-1.85,.35-3.97-2.74-8.73-3.97-13.15-3.97-8.56,0-13.5,4.76-13.5,12.62v19.76c0,8.03,5.03,12.71,13.59,12.71,5.03,0,10.5-1.59,14.65-4.59,.71-.53,1.32-.44,1.76,.35l4.15,6c.44,.71,.44,1.32-.18,1.85-5.56,4.32-12.97,6.44-20.29,6.44Z" style="fill:#152f4e;"/><path d="M386.51,31.95c0-.88,.44-1.32,1.24-1.32h8.12c.79,0,1.24,.44,1.24,1.32v60.44c0,.88-.44,1.32-1.24,1.32h-8.12c-.79,0-1.24-.44-1.24-1.32v-25.67h-24.88v25.67c0,.88-.44,1.32-1.24,1.32h-8.12c-.79,0-1.24-.44-1.24-1.32V31.95c0-.88,.44-1.32,1.24-1.32h8.12c.79,0,1.24,.44,1.24,1.32v24.97h24.88V31.95Z" style="fill:#152f4e;"/><path d="M412.81,93.71c-.79,0-1.24-.44-1.24-1.32V31.95c0-.88,.44-1.32,1.24-1.32h9.62c.62,0,1.15,.26,1.41,.97l10.76,20.03c2.38,4.41,6.09,12.35,7.5,15.53h.35c1.41-3.18,5.12-11.12,7.5-15.53l10.68-20.03c.35-.71,.88-.97,1.5-.97h9.53c.88,0,1.32,.44,1.32,1.32v60.44c0,.88-.44,1.32-1.32,1.32h-8.03c-.79,0-1.24-.44-1.24-1.32v-17.73c0-8.29,.35-19.06,.71-27.7l-.26-.09c-2.12,4.59-5.03,10.5-7.94,16.32l-7.76,15.09c-.26,.62-.79,.97-1.5,.97h-6.71c-.71,0-1.24-.35-1.5-.97l-7.76-15.09c-2.91-5.82-5.82-11.73-7.94-16.32l-.26,.09c.35,8.65,.71,19.41,.71,27.7v17.73c0,.88-.44,1.32-1.32,1.32h-8.03Z" style="fill:#152f4e;"/><path d="M481.89,93.71c-.97,0-1.32-.53-1.06-1.5l21.17-60.52c.26-.71,.71-1.06,1.41-1.06h10.06c.71,0,1.15,.35,1.41,1.06l21.17,60.52c.26,.97-.18,1.5-1.06,1.5h-8.65c-.71,0-1.32-.35-1.5-1.06l-4.32-13.32h-24.18l-4.32,13.32c-.26,.71-.79,1.06-1.5,1.06h-8.65Zm17.47-24h18.18l-8.91-27.44h-.35l-8.91,27.44Z" style="fill:#152f4e;"/><path d="M579.29,93.71c-.62,0-1.15-.26-1.5-.88l-15.44-22.15h-7.85v21.7c0,.88-.44,1.32-1.24,1.32h-8.12c-.79,0-1.24-.44-1.24-1.32V31.95c0-.88,.44-1.32,1.24-1.32h20.47c14.47,0,22.94,7.5,22.94,20.12,0,9.7-5.38,16.32-14.65,18.79l16.15,22.59c.62,.97,.18,1.59-.79,1.59h-9.97Zm-24.79-53.29v20.73h11.12c8.21,0,12.09-3.26,12.09-10.32s-3.88-10.41-12.09-10.41h-11.12Z" style="fill:#152f4e;"/></g><path d="M723,63.18c0,.53,.43,.96,.96,.96h8.78c.53,0,.96-.43,.96-.96V28.97c0-.53-.43-.96-.96-.96h-34.17c-.53,0-.96,.43-.96,.96v8.78c0,.53,.43,.96,.96,.96h23.47c.53,0,.96,.43,.96,.96v23.51Z" style="fill:#f9b342;"/><path d="M731.09,133.6c0,.53-.43,.96-.96,.96h-102.06c-.53,0-.96-.43-.96-.96V31.54c0-.53,.43-.96,.96-.96h45.34c.53,0,.96,.43,.96,.96v3.73c0,.53-.43,.96-.96,.96h-39.69c-.53,0-.96,.43-.96,.96V127.95c0,.53,.43,.96,.96,.96h90.76c.53,0,.96-.43,.96-.96v-39.21c0-.53,.43-.96,.96-.96h3.73c.53,0,.96,.43,.96,.96v44.87Z" style="fill:#152f4e;"/><path d="M704.91,77.11h-20.31v-20.31c0-1.92-1.57-3.49-3.49-3.49h-4.03c-1.92,0-3.49,1.57-3.49,3.49v20.31h-20.31c-1.92,0-3.49,1.57-3.49,3.49v4.03c0,1.92,1.57,3.49,3.49,3.49h20.31v20.31c0,1.92,1.57,3.49,3.49,3.49h4.03c1.92,0,3.49-1.57,3.49-3.49v-20.31h20.31c1.92,0,3.49-1.57,3.49-3.49v-4.03c0-1.92-1.57-3.49-3.49-3.49Z" style="fill:#152f4e;"/><g><path d="M43.44,134.51h-10.72c-.56,0-1.04-.48-1.04-1.04v-22.77c0-.55,.48-1.04,1.04-1.04h2.93c.56,0,1.04,.48,1.04,1.04v19.36h6.75c.56,0,1.04,.48,1.04,1.04v2.37c0,.55-.48,1.04-1.04,1.04Z" style="fill:#152f4e;"/><path d="M53.71,134.77c-5.01,0-7.53-3.56-7.53-9.38s2.63-9.2,7.53-9.2,7.53,3.56,7.53,9.2-2.52,9.38-7.53,9.38Zm0-14.54c-1.45,0-2.74,1-2.74,5.15s1.33,5.23,2.74,5.23,2.74-.96,2.74-5.23-1.3-5.15-2.74-5.15Z" style="fill:#152f4e;"/><path d="M71.96,142.07c-4.23,0-7.9-1.33-7.9-5.6,0-.55,.44-1.07,1-1.04l2.67,.11c.59,.04,.78,.37,.93,.93,.37,1.48,1.89,1.89,3.41,1.89,2.41,0,3.52-.85,3.52-2.08s-.48-1.71-2.3-1.71h-3.86c-1.97,0-4.41-.59-4.41-3.37,0-1.19,.63-2.15,1.48-2.93-1.52-1.15-2.45-2.93-2.45-5.23,0-4.3,2.74-6.75,7.16-6.75,1.19,0,2.63,.33,3.41,.33h4.04c.85,0,1.15,.37,1.15,1.04v1.19c0,.81-.19,1-.7,1.07l-1.78,.22c.67,.78,1.11,1.71,1.11,2.89,0,4.12-2.71,6.71-7.19,6.71-.59,0-1.19-.07-1.74-.19-.15,.22-.26,.37-.26,.67,0,.63,.59,.71,1.19,.71h3.49c3.63,0,5.97,1.52,5.97,4.97,0,4.71-4,6.15-7.94,6.15Zm-.7-22.25c-1.74,0-2.48,1-2.48,3.15s.74,3.19,2.48,3.19,2.52-1.22,2.52-3.19c0-2.08-.78-3.15-2.52-3.15Z" style="fill:#152f4e;"/><path d="M84.75,113.85c-1.59,0-2.74-1.3-2.74-2.89s1.15-2.89,2.74-2.89,2.74,1.3,2.74,2.89-1.15,2.89-2.74,2.89Zm1.41,20.65h-2.82c-.56,0-1-.45-1-1v-15.87c0-.55,.45-1,1-1h2.82c.56,0,1,.45,1,1v15.87c0,.55-.44,1-1,1Z" style="fill:#152f4e;"/><path d="M96.31,134.77c-1.93,0-3.93-.52-5.52-1.15-.56-.22-.78-.67-.63-1.19l.67-2.08c.19-.56,.59-.93,1.19-.71,1.33,.48,2.71,1.04,4.08,1.04,1.19,0,1.67-.56,1.67-1.34,0-1.11-1.26-1.71-2.74-2.45-2-1.04-4.34-2.11-4.34-5.41,0-3,2-5.3,5.9-5.3,1.85,0,2.82,.15,4.49,.82,.52,.22,.93,.67,.74,1.19l-.63,1.67c-.22,.56-.63,.93-1.15,.74-.74-.26-1.78-.74-3.04-.74-1.04,0-1.48,.63-1.48,1.34,0,.82,1.45,1.45,3,2.26,1.93,1,4.08,2.26,4.08,5.64,0,2.71-1.63,5.67-6.27,5.67Z" style="fill:#152f4e;"/><path d="M113.33,134.28c-.89,.3-1.78,.48-3.08,.48-3.08,0-4.12-1.78-4.12-4.6v-9.9h-1.22c-.56,0-1-.45-1-1v-1.63c0-.55,.44-1,1-1h1.22v-4.01c0-.7,.19-1.33,.89-1.48l2.71-.63c.85-.19,1.22,.3,1.22,1.19v4.93h1.59c.56,0,1,.45,1,1v1.63c0,.55-.45,1-1,1h-1.59v8.64c0,1,.33,1.45,.74,1.45,.33,0,.48,0,.74-.07,.59-.15,.96,.07,1.08,.67l.44,2.34c.07,.48-.15,.85-.63,1Z" style="fill:#152f4e;"/><path d="M118.82,113.85c-1.59,0-2.74-1.3-2.74-2.89s1.15-2.89,2.74-2.89,2.74,1.3,2.74,2.89-1.15,2.89-2.74,2.89Zm1.41,20.65h-2.82c-.56,0-1-.45-1-1v-15.87c0-.55,.45-1,1-1h2.82c.56,0,1,.45,1,1v15.87c0,.55-.44,1-1,1Z" style="fill:#152f4e;"/><path d="M139.7,134.51h-3.89c-.63,0-1.11-.3-1.45-.93l-4-7.97v7.9c0,.55-.44,1-1,1h-2.82c-.56,0-1-.45-1-1v-24.25c0-.56,.45-1,1-1h2.82c.56,0,1,.45,1,1v14.13l3.52-5.9c.33-.55,.82-.85,1.45-.85h3.63c.59,0,.82,.63,.44,1.15l-4.63,6.38,5.45,9.2c.3,.52,.07,1.15-.52,1.15Z" style="fill:#152f4e;"/><path d="M146.26,134.51h-2.82c-.56,0-1-.45-1-1v-24.25c0-.56,.45-1,1-1h2.82c.56,0,1,.45,1,1v24.25c0,.55-.44,1-1,1Z" style="fill:#152f4e;"/><path d="M158.35,134.77c-5.01,0-7.53-3.56-7.53-9.38s2.63-9.2,7.53-9.2,7.53,3.56,7.53,9.2-2.52,9.38-7.53,9.38Zm-3.63-21.02c-1.45,0-2.63-1.19-2.63-2.63s1.19-2.63,2.63-2.63,2.63,1.19,2.63,2.63-1.19,2.63-2.63,2.63Zm3.63,6.49c-1.45,0-2.74,1-2.74,5.15s1.33,5.23,2.74,5.23,2.74-.96,2.74-5.23-1.3-5.15-2.74-5.15Zm3.67-6.49c-1.45,0-2.63-1.19-2.63-2.63s1.19-2.63,2.63-2.63,2.63,1.19,2.63,2.63-1.19,2.63-2.63,2.63Z" style="fill:#152f4e;"/><path d="M174.85,134.77c-1.93,0-3.93-.52-5.52-1.15-.56-.22-.78-.67-.63-1.19l.67-2.08c.19-.56,.59-.93,1.19-.71,1.33,.48,2.71,1.04,4.08,1.04,1.19,0,1.67-.56,1.67-1.34,0-1.11-1.26-1.71-2.74-2.45-2-1.04-4.34-2.11-4.34-5.41,0-3,2-5.3,5.9-5.3,1.85,0,2.82,.15,4.49,.82,.52,.22,.93,.67,.74,1.19l-.63,1.67c-.22,.56-.63,.93-1.15,.74-.74-.26-1.78-.74-3.04-.74-1.04,0-1.48,.63-1.48,1.34,0,.82,1.45,1.45,3,2.26,1.93,1,4.08,2.26,4.08,5.64,0,2.71-1.63,5.67-6.27,5.67Z" style="fill:#152f4e;"/><path d="M197.95,134.51h-2.15c-.59,0-.93-.37-1.04-.89l-.26-1.11c-1.41,1.48-3.15,2.26-5.08,2.26-2.78,0-4.75-1.85-4.75-4.63v-12.5c0-.55,.45-1,1-1h2.82c.56,0,1,.45,1,1v11.53c0,.89,.56,1.56,1.71,1.56,1.59,0,2.93-1.52,2.93-3.67v-9.42c0-.55,.45-1,1-1h2.82c.56,0,1,.45,1,1v15.87c0,.55-.44,1-1,1Z" style="fill:#152f4e;"/><path d="M216.16,134.51h-2.82c-.56,0-1-.45-1-1v-11.72c0-.89-.37-1.56-1.52-1.56-1.59,0-2.74,1.52-2.74,3.67v9.6c0,.55-.44,1-1,1h-2.82c-.56,0-1-.45-1-1v-15.87c0-.55,.45-1,1-1h2.19c.59,0,.93,.37,1.04,.89l.22,1c1.41-1.52,2.97-2.34,4.89-2.34,2.78,0,4.56,1.85,4.56,4.63v12.68c0,.55-.44,1-1,1Z" style="fill:#152f4e;"/><path d="M228.62,142.07c-4.23,0-7.9-1.33-7.9-5.6,0-.55,.44-1.07,1-1.04l2.67,.11c.59,.04,.78,.37,.93,.93,.37,1.48,1.89,1.89,3.41,1.89,2.41,0,3.52-.85,3.52-2.08s-.48-1.71-2.3-1.71h-3.86c-1.97,0-4.41-.59-4.41-3.37,0-1.19,.63-2.15,1.48-2.93-1.52-1.15-2.45-2.93-2.45-5.23,0-4.3,2.74-6.75,7.16-6.75,1.19,0,2.63,.33,3.41,.33h4.04c.85,0,1.15,.37,1.15,1.04v1.19c0,.81-.19,1-.7,1.07l-1.78,.22c.67,.78,1.11,1.71,1.11,2.89,0,4.12-2.71,6.71-7.19,6.71-.59,0-1.19-.07-1.74-.19-.15,.22-.26,.37-.26,.67,0,.63,.59,.71,1.19,.71h3.49c3.63,0,5.97,1.52,5.97,4.97,0,4.71-4,6.15-7.94,6.15Zm-.7-22.25c-1.74,0-2.48,1-2.48,3.15s.74,3.19,2.48,3.19,2.52-1.22,2.52-3.19c0-2.08-.78-3.15-2.52-3.15Z" style="fill:#152f4e;"/><path d="M251.13,127.05h-8.34c.19,1.97,.67,3.52,3.71,3.52,1.45,0,2.48-.33,3.49-.71,.63-.22,.89,.11,1.04,.59l.74,2.15c.19,.56-.15,.93-.59,1.11-1.67,.74-3.23,1.04-5.64,1.04-4.78,0-7.82-3-7.82-9.34,0-5.38,2.71-9.23,7.27-9.23,4.89,0,7.16,3.34,7.16,9.86,0,.56-.44,1-1,1Zm-6.04-7.08c-1.74,0-2.22,1.82-2.34,4.01h4.56c0-2.11-.48-4.01-2.22-4.01Z" style="fill:#152f4e;"/><path d="M268.41,134.51h-2.82c-.56,0-1-.45-1-1v-11.72c0-.89-.37-1.56-1.52-1.56-1.59,0-2.74,1.52-2.74,3.67v9.6c0,.55-.44,1-1,1h-2.82c-.56,0-1-.45-1-1v-15.87c0-.55,.45-1,1-1h2.19c.59,0,.93,.37,1.04,.89l.22,1c1.41-1.52,2.97-2.34,4.89-2.34,2.78,0,4.56,1.85,4.56,4.63v12.68c0,.55-.44,1-1,1Z" style="fill:#152f4e;"/><path d="M276.31,134.77c-1.63,0-2.97-1.33-2.97-2.97s1.33-2.96,2.97-2.96,2.97,1.33,2.97,2.96-1.33,2.97-2.97,2.97Z" style="fill:#152f4e;"/><path d="M305.45,134.51h-11.27c-.41,0-.78-.33-.78-.74v-23.36c0-.44,.37-.74,.78-.74h11.27c.41,0,.78,.3,.78,.74v1.22c0,.45-.3,.82-.78,.82h-9.05v7.56h8.31c.44,0,.78,.33,.78,.74v1.15c0,.48-.33,.81-.78,.81h-8.31v8.94h9.01c.45,0,.82,.33,.82,.78v1.34c0,.41-.37,.74-.78,.74Z" style="fill:#152f4e;"/><path d="M312.31,112.37c-1.19,0-2.15-.96-2.15-2.15s.96-2.15,2.15-2.15,2.15,.96,2.15,2.15-.96,2.15-2.15,2.15Zm.67,22.13h-1.33c-.41,0-.78-.33-.78-.74v-16.39c0-.41,.37-.74,.78-.74h1.33c.41,0,.78,.33,.78,.74v16.39c0,.41-.37,.74-.78,.74Z" style="fill:#152f4e;"/><path d="M331.82,134.51h-1.41c-.41,0-.78-.33-.78-.74v-12.01c0-1.97-.67-2.78-2.3-2.78-2.41,0-4.3,2.04-4.3,4.6v10.2c0,.41-.37,.74-.78,.74h-1.41c-.41,0-.78-.33-.78-.74v-16.39c0-.44,.37-.74,.78-.74h.82c.52,0,.74,.15,.85,.59l.41,1.82c1.59-1.85,3.19-2.6,5.12-2.6,2.78,0,4.56,1.85,4.56,4.63v12.68c0,.41-.37,.74-.78,.74Z" style="fill:#152f4e;"/><path d="M345.54,110.66c-.11,.37-.45,.52-.85,.41-.37-.11-1-.41-1.59-.41-1.11,0-1.67,.78-1.67,2.11v3.86h2.22c.41,0,.74,.37,.74,.78v.82c0,.41-.33,.78-.74,.78h-2.22v14.76c0,.41-.37,.74-.78,.74h-1.33c-.37,0-.78-.33-.78-.74v-14.76h-1.85c-.44,0-.74-.37-.74-.78v-.82c0-.41,.3-.78,.74-.78h1.85v-3.97c0-3.41,2.08-4.6,4.41-4.6,.96,0,1.89,.33,2.48,.59,.41,.19,.52,.59,.41,1l-.3,1Z" style="fill:#152f4e;"/><path d="M358.52,134.51h-1.52c-.41,0-.74-.19-.82-.67l-.3-1.86c-1.19,1.96-3.11,2.71-5.08,2.71-2.85,0-4.75-1.89-4.75-5.19,0-4.19,2.82-5.52,5.38-5.67l4.34-.26v-.96c0-2.34-.59-3.48-3.37-3.48-1.52,0-2.52,.37-3.52,.63-.45,.11-.85-.11-.93-.55l-.22-1.19c-.07-.45,.07-.78,.52-.89,1-.26,2.71-.67,4.3-.67,5.6,0,6.12,3.6,6.12,6.56v6.56c0,.96,0,1.96,.22,3.08l.22,1.11c.07,.44-.19,.74-.59,.74Zm-2.74-8.82l-2.48,.11c-2.41,.11-4.19,.71-4.19,3.71,0,1.93,.96,2.82,2.52,2.82,2.52,0,4.15-2.26,4.15-3.71v-2.93Z" style="fill:#152f4e;"/><path d="M374.46,134.25c-1.04,.33-2.11,.45-3.37,.45-4.34,0-7.23-3.3-7.23-9.27,0-5.27,3.08-8.97,7.19-8.97,1.26,0,2.48,.33,3.15,.63,.48,.22,.7,.52,.56,.93l-.37,1.08c-.11,.37-.37,.67-.93,.45-.59-.22-1.48-.52-2.52-.52-2.3,0-3.93,2.41-3.93,6.41,0,4.38,1.45,6.53,4.26,6.53,1,0,1.89-.15,2.6-.33,.52-.15,.85,.19,.93,.56l.26,1.15c.07,.37-.11,.78-.59,.93Z" style="fill:#152f4e;"/><path d="M390.88,134.51h-1.33c-.41,0-.78-.33-.78-.74v-12.01c0-1.97-.74-2.78-2.37-2.78-2.41,0-4.38,2.04-4.38,4.6v10.2c0,.41-.37,.74-.78,.74h-1.33c-.41,0-.78-.33-.78-.74v-24.77c0-.45,.37-.74,.78-.74h1.33c.41,0,.78,.3,.78,.74v9.97c1.59-1.78,3.19-2.52,5.08-2.52,2.78,0,4.56,1.85,4.56,4.63v12.68c0,.41-.37,.74-.78,.74Z" style="fill:#152f4e;"/><path d="M419.77,119.05l-2.04,.11c.85,1.11,1.41,2.45,1.41,3.74,0,4-2.56,6.41-6.53,6.41-.67,0-1.3-.07-1.89-.22-.41,.37-.74,.81-.74,1.3,0,.85,.59,1.08,2.15,1.08h2.89c3.3,0,5.41,1.78,5.41,4.78,0,4.19-3.86,5.75-7.23,5.75s-7.16-1.11-7.16-5.04c0-.45,.37-.74,.78-.74l1.63,.04c.41,0,.71,.29,.78,.74,.26,2.11,2.3,2.41,4.08,2.41,2.19,0,4.19-1,4.19-2.74,0-1.59-.85-2.52-2.93-2.52h-3.52c-2.22,0-3.93-.81-3.93-2.78,0-1.34,.74-2.3,1.63-3.12-1.63-1.08-2.71-2.89-2.71-5.34,0-4.12,2.71-6.45,6.53-6.45,.82,0,1.48,.19,2.26,.19h4.93c.44,0,.74,.37,.74,.78v.93c0,.41-.3,.67-.74,.71Zm-7.16-.37c-1.89,0-3.49,.67-3.49,4.12s1.59,4.23,3.49,4.23,3.49-.78,3.49-4.23-1.59-4.12-3.49-4.12Z" style="fill:#152f4e;"/><path d="M436.97,134.51h-.85c-.37,0-.63-.22-.74-.63l-.48-1.93c-.93,1-2.15,2.74-5.41,2.74-2.71,0-4.41-1.59-4.41-4.71v-12.61c0-.44,.37-.74,.78-.74h1.41c.41,0,.78,.3,.78,.74v12.24c0,1.82,.85,2.6,2.26,2.6,2.63,0,4.49-1.89,4.49-5.82v-9.01c0-.44,.37-.74,.78-.74h1.41c.41,0,.78,.3,.78,.74v16.39c0,.41-.37,.74-.78,.74Z" style="fill:#152f4e;"/><path d="M449.8,134.43c-.52,.15-1.26,.26-2.04,.26-2.52,0-3.71-1.15-3.71-3.52v-12.16h-1.85c-.45,0-.74-.37-.74-.78v-.82c0-.41,.3-.78,.74-.78h1.85v-3.75c0-.41,.22-.7,.56-.81l1.37-.48c.44-.15,.96-.19,.96,.41v4.63h2.22c.41,0,.74,.37,.74,.78v.82c0,.41-.33,.78-.74,.78h-2.22v11.79c0,1,.41,1.45,1.33,1.45,.3,0,.78-.07,1.15-.15,.37-.07,.7,.19,.78,.59l.15,.78c.07,.44-.04,.81-.56,.96Z" style="fill:#152f4e;"/><path d="M475.87,119.05l-2.04,.11c.85,1.11,1.41,2.45,1.41,3.74,0,4-2.56,6.41-6.53,6.41-.67,0-1.3-.07-1.89-.22-.41,.37-.74,.81-.74,1.3,0,.85,.59,1.08,2.15,1.08h2.89c3.3,0,5.41,1.78,5.41,4.78,0,4.19-3.86,5.75-7.23,5.75s-7.16-1.11-7.16-5.04c0-.45,.37-.74,.78-.74l1.63,.04c.41,0,.71,.29,.78,.74,.26,2.11,2.3,2.41,4.08,2.41,2.19,0,4.19-1,4.19-2.74,0-1.59-.85-2.52-2.93-2.52h-3.52c-2.22,0-3.93-.81-3.93-2.78,0-1.34,.74-2.3,1.63-3.12-1.63-1.08-2.71-2.89-2.71-5.34,0-4.12,2.71-6.45,6.53-6.45,.82,0,1.48,.19,2.26,.19h4.93c.44,0,.74,.37,.74,.78v.93c0,.41-.3,.67-.74,.71Zm-7.16-.37c-1.89,0-3.49,.67-3.49,4.12s1.59,4.23,3.49,4.23,3.49-.78,3.49-4.23-1.59-4.12-3.49-4.12Z" style="fill:#152f4e;"/><path d="M492.41,126.31h-9.46c.15,3.74,1.45,5.78,4.78,5.78,1.41,0,2.41-.26,3.52-.59,.52-.15,.82,.11,.96,.48l.33,.93c.15,.41-.04,.78-.48,.96-1,.44-2.19,.81-4.3,.81-5.12,0-7.9-3.22-7.9-9.23,0-5.6,2.74-9.01,6.71-9.01,3.41,0,6.56,2.08,6.56,9.08,0,.41-.33,.78-.74,.78Zm-5.75-7.49c-1.22,0-3.26,.71-3.71,5.12h7.16c-.07-2.48-1-5.12-3.45-5.12Z" style="fill:#152f4e;"/><path d="M519.48,134.51h-1.41c-.41,0-.78-.33-.78-.74v-12.01c0-1.97-.67-2.78-2.3-2.78-2.41,0-4.3,2.04-4.3,4.6v10.2c0,.41-.37,.74-.78,.74h-1.41c-.41,0-.78-.33-.78-.74v-12.01c0-1.97-.67-2.78-2.3-2.78-2.41,0-4.3,2.04-4.3,4.6v10.2c0,.41-.37,.74-.78,.74h-1.41c-.41,0-.78-.33-.78-.74v-16.39c0-.44,.37-.74,.78-.74h.82c.52,0,.74,.15,.85,.59l.41,1.82c1.59-1.85,3.19-2.6,5.12-2.6,2.11,0,3.67,1.07,4.26,2.82,1.41-1.71,2.93-2.82,5.3-2.82,2.78,0,4.56,1.85,4.56,4.63v12.68c0,.41-.37,.74-.78,.74Z" style="fill:#152f4e;"/><path d="M537.35,134.51h-1.52c-.41,0-.74-.19-.82-.67l-.3-1.86c-1.19,1.96-3.11,2.71-5.08,2.71-2.85,0-4.75-1.89-4.75-5.19,0-4.19,2.82-5.52,5.38-5.67l4.34-.26v-.96c0-2.34-.59-3.48-3.37-3.48-1.52,0-2.52,.37-3.52,.63-.45,.11-.85-.11-.93-.55l-.22-1.19c-.07-.45,.07-.78,.52-.89,1-.26,2.71-.67,4.3-.67,5.6,0,6.12,3.6,6.12,6.56v6.56c0,.96,0,1.96,.22,3.08l.22,1.11c.07,.44-.18,.74-.59,.74Zm-2.74-8.82l-2.48,.11c-2.41,.11-4.19,.71-4.19,3.71,0,1.93,.96,2.82,2.52,2.82,2.52,0,4.15-2.26,4.15-3.71v-2.93Z" style="fill:#152f4e;"/><path d="M553.3,134.25c-1.04,.33-2.11,.45-3.37,.45-4.34,0-7.23-3.3-7.23-9.27,0-5.27,3.08-8.97,7.19-8.97,1.26,0,2.48,.33,3.15,.63,.48,.22,.7,.52,.56,.93l-.37,1.08c-.11,.37-.37,.67-.93,.45-.59-.22-1.48-.52-2.52-.52-2.3,0-3.93,2.41-3.93,6.41,0,4.38,1.45,6.53,4.26,6.53,1,0,1.89-.15,2.6-.33,.52-.15,.85,.19,.93,.56l.26,1.15c.07,.37-.11,.78-.59,.93Z" style="fill:#152f4e;"/><path d="M569.72,134.51h-1.33c-.41,0-.78-.33-.78-.74v-12.01c0-1.97-.74-2.78-2.37-2.78-2.41,0-4.38,2.04-4.38,4.6v10.2c0,.41-.37,.74-.78,.74h-1.33c-.41,0-.78-.33-.78-.74v-24.77c0-.45,.37-.74,.78-.74h1.33c.41,0,.78,.3,.78,.74v9.97c1.59-1.78,3.19-2.52,5.08-2.52,2.78,0,4.56,1.85,4.56,4.63v12.68c0,.41-.37,.74-.78,.74Z" style="fill:#152f4e;"/><path d="M582.18,134.43c-.52,.15-1.26,.26-2.04,.26-2.52,0-3.71-1.15-3.71-3.52v-12.16h-1.85c-.45,0-.74-.37-.74-.78v-.82c0-.41,.3-.78,.74-.78h1.85v-3.75c0-.41,.22-.7,.56-.81l1.37-.48c.44-.15,.96-.19,.96,.41v4.63h2.22c.41,0,.74,.37,.74,.78v.82c0,.41-.33,.78-.74,.78h-2.22v11.79c0,1,.41,1.45,1.33,1.45,.3,0,.78-.07,1.15-.15s.7,.19,.78,.59l.15,.78c.07,.44-.04,.81-.56,.96Z" style="fill:#152f4e;"/><path d="M588.19,134.69c-1.3,0-2.3-1.04-2.3-2.34s1-2.3,2.3-2.3,2.34,1,2.34,2.3-1.04,2.34-2.34,2.34Z" style="fill:#152f4e;"/></g></svg>